<?xml version="1.0" standalone="no"?>
<!DOCTYPE svg PUBLIC "-//W3C//DTD SVG 20010904//EN"
 "http://www.w3.org/TR/2001/REC-SVG-20010904/DTD/svg10.dtd">
<svg version="1.0" xmlns="http://www.w3.org/2000/svg"
 width="2000.000000pt" height="2000.000000pt" viewBox="0 0 2000.000000 2000.000000"
 preserveAspectRatio="xMidYMid meet">

<g transform="translate(0.000000,2000.000000) scale(0.100000,-0.100000)"
fill="#000000" stroke="none">
<path d="M9580 15959 c-1146 -82 -2225 -483 -3156 -1174 -420 -312 -897 -789
-1209 -1209 -697 -938 -1093 -2010 -1175 -3176 -21 -307 -11 -755 26 -1080
116 -1041 511 -2037 1149 -2896 312 -420 789 -897 1209 -1209 938 -697 2010
-1093 3176 -1175 186 -13 614 -13 800 0 1168 82 2250 483 3180 1179 427 319
893 785 1205 1205 697 938 1093 2010 1175 3176 21 307 11 755 -26 1080 -116
1041 -511 2037 -1149 2896 -312 420 -789 897 -1209 1209 -938 697 -2010 1093
-3176 1175 -167 11 -651 11 -820 -1z m835 -320 c2409 -170 4466 -1891 5064
-4234 121 -477 173 -895 173 -1405 0 -510 -52 -928 -173 -1405 -507 -1989
-2085 -3567 -4074 -4074 -477 -121 -895 -173 -1405 -173 -510 0 -928 52 -1405
173 -1412 360 -2646 1271 -3413 2520 -355 576 -600 1202 -731 1864 -119 600
-137 1275 -50 1895 130 933 508 1841 1085 2605 300 398 711 809 1109 1109
1099 830 2436 1223 3820 1125z"/>
<path d="M10080 14909 c0 -19 -9 -169 -19 -334 -12 -181 -15 -302 -10 -306 11
-6 430 -31 436 -26 2 2 6 40 10 84 l6 80 -118 7 c-65 3 -120 8 -123 10 -2 2 0
25 3 49 l7 46 102 -6 103 -6 6 74 c3 40 4 76 1 78 -3 3 -40 7 -82 9 -120 5
-122 6 -122 53 l0 41 119 -7 118 -7 6 38 c4 22 7 60 7 85 l0 46 -137 7 c-76 3
-177 9 -225 13 l-88 6 0 -34z"/>
<path d="M9395 14903 c-110 -14 -201 -26 -202 -27 -4 -4 77 -660 82 -665 6 -5
433 44 440 51 4 4 -15 151 -21 157 -2 2 -53 -2 -114 -9 -61 -7 -113 -10 -116
-8 -3 3 -6 25 -7 49 l-2 43 99 13 c54 7 100 14 102 16 4 4 -15 140 -21 146 -3
2 -49 0 -102 -7 -54 -6 -98 -10 -100 -9 -1 2 -5 21 -9 44 l-6 41 121 12 122
13 -5 26 c-3 14 -8 52 -12 84 -6 50 -9 57 -28 56 -11 -1 -111 -13 -221 -26z"/>
<path d="M8535 14719 c-121 -38 -223 -70 -226 -72 -5 -2 188 -635 197 -645 1
-2 48 10 103 27 65 20 99 36 96 44 -32 99 -65 210 -65 221 0 8 33 24 85 40 48
15 85 32 85 39 0 29 -43 137 -54 137 -7 0 -46 -11 -86 -25 -40 -14 -77 -25
-80 -25 -6 0 -30 67 -30 83 0 4 53 23 118 43 64 20 120 39 125 43 6 6 -35 148
-45 156 -2 2 -102 -28 -223 -66z"/>
<path d="M11383 14678 c-12 -35 -24 -70 -28 -79 -4 -12 12 -21 75 -43 44 -16
80 -33 80 -40 0 -6 -36 -113 -81 -239 -45 -125 -80 -230 -77 -233 3 -3 48 -20
100 -39 l94 -33 84 234 c46 129 87 237 90 239 4 3 43 -9 88 -25 l80 -29 27 75
c16 42 24 79 19 83 -9 8 -510 191 -522 191 -4 0 -17 -28 -29 -62z"/>
<path d="M7685 14361 c-110 -59 -199 -112 -198 -118 2 -10 301 -573 309 -582
4 -5 161 75 177 89 5 4 -18 58 -50 120 -32 62 -53 114 -48 116 6 2 43 22 82
44 l73 41 -35 70 -36 70 -84 -46 -84 -46 -21 33 c-11 18 -20 38 -20 45 0 6 51
39 114 72 l113 60 -36 71 c-20 38 -40 70 -46 70 -5 -1 -100 -49 -210 -109z"/>
<path d="M12303 14348 c-4 -7 -78 -138 -164 -292 l-157 -281 27 -15 c14 -9 55
-32 91 -52 l65 -36 164 295 c133 237 162 296 150 304 -26 17 -158 89 -163 89
-3 0 -8 -5 -13 -12z"/>
<path d="M9730 14004 c-19 -2 -87 -9 -150 -15 -699 -65 -1428 -353 -2002 -791
-800 -610 -1342 -1486 -1522 -2461 -50 -271 -61 -399 -61 -737 0 -338 11 -466
61 -737 112 -605 373 -1196 746 -1685 670 -879 1629 -1427 2738 -1565 206 -25
714 -25 920 0 637 79 1202 283 1729 625 912 590 1558 1556 1755 2625 50 271
61 399 61 737 0 338 -11 466 -61 737 -161 871 -617 1676 -1281 2263 -623 550
-1361 881 -2193 986 -118 14 -655 28 -740 18z m728 -178 c466 -62 859 -179
1252 -375 1214 -605 2013 -1783 2130 -3136 22 -262 10 -606 -30 -883 -245
-1668 -1574 -2997 -3242 -3242 -374 -55 -762 -55 -1136 0 -1635 240 -2947
1521 -3226 3150 -45 259 -51 341 -51 660 0 319 6 401 51 660 130 761 486 1459
1029 2019 651 671 1492 1072 2435 1161 147 13 644 5 788 -14z"/>
<path d="M9660 13599 c-233 -22 -577 -94 -800 -169 -1275 -427 -2207 -1519
-2424 -2840 -35 -215 -46 -352 -46 -590 0 -238 11 -375 46 -590 251 -1525
1449 -2723 2974 -2974 215 -35 352 -46 590 -46 238 0 375 11 590 46 1525 251
2723 1449 2974 2974 35 215 46 352 46 590 0 238 -11 375 -46 590 -217 1321
-1149 2413 -2424 2840 -232 78 -568 147 -820 170 -135 12 -524 11 -660 -1z
m2270 -1609 l0 -299 63 -3 62 -3 3 -287 2 -288 -159 0 -160 0 -6 -32 c-3 -18
-14 -91 -23 -163 l-18 -130 74 -3 73 -3 -5 -27 c-6 -27 -286 -1926 -286 -1936
0 -4 -29 -6 -64 -6 -53 0 -66 -3 -69 -17 -3 -10 -36 -240 -73 -510 l-68 -493
-53 0 -53 0 0 -125 0 -125 -1125 0 -1125 0 0 125 0 125 -65 0 c-36 0 -65 1
-65 3 0 1 -31 227 -70 502 -38 275 -70 503 -70 508 0 4 -35 7 -78 7 l-78 0
-142 968 c-79 532 -143 975 -142 985 0 15 11 17 80 17 57 0 80 4 80 13 0 6
-10 81 -22 165 l-21 152 -204 0 -203 0 0 290 0 290 60 0 60 0 0 300 0 300
1945 0 1945 0 0 -300z"/>
<path d="M8220 12025 c0 -53 4 -85 10 -85 46 0 160 114 160 159 0 7 -32 11
-85 11 l-85 0 0 -85z"/>
<path d="M8485 12080 c-9 -42 -78 -143 -120 -174 -20 -15 -60 -39 -90 -52
l-55 -25 0 -70 0 -69 1765 0 1765 0 0 70 c0 59 -3 72 -17 76 -103 31 -198 115
-239 210 l-28 64 -1487 0 -1487 0 -7 -30z"/>
<path d="M11570 12105 c0 -18 43 -85 72 -111 29 -28 87 -64 103 -64 3 0 5 41
5 90 l0 90 -90 0 c-49 0 -90 -2 -90 -5z"/>
<path d="M8100 11400 l0 -110 1890 0 1891 0 -3 108 -3 107 -1887 3 -1888 2 0
-110z"/>
<path d="M8513 11083 c3 -16 13 -90 23 -165 l19 -138 1476 0 1477 0 6 28 c9
46 36 251 36 277 l0 25 -1521 0 -1521 0 5 -27z"/>
<path d="M8417 10593 c-2 -6 141 -989 227 -1555 l7 -48 1369 0 1370 0 5 23 c3
12 55 360 115 772 61 413 113 765 116 783 l6 32 -1605 0 c-883 0 -1608 -3
-1610 -7z m1746 -285 c21 -6 60 -30 85 -53 l46 -42 -23 -55 c-12 -30 -58 -122
-103 -204 -117 -217 -223 -434 -244 -503 -11 -34 -23 -59 -29 -58 -18 6 -64
110 -86 192 -16 61 -21 110 -21 205 0 204 48 348 151 450 75 75 138 94 224 68z
m211 -259 c106 -316 -8 -720 -219 -779 -85 -24 -205 20 -205 75 0 62 83 247
234 525 58 107 114 214 124 237 22 54 32 45 66 -58z"/>
<path d="M8834 8783 c3 -16 28 -194 56 -398 28 -203 53 -380 55 -392 l5 -23
1085 0 c597 0 1085 3 1085 8 0 4 25 183 55 397 30 215 55 400 55 413 l0 22
-1201 0 -1201 0 6 -27z"/>
<path d="M9100 7755 l0 -35 945 0 945 0 0 35 0 35 -945 0 -945 0 0 -35z"/>
<path d="M12675 13758 l-216 -253 43 -38 c24 -21 60 -52 80 -68 l37 -30 103
120 c56 66 104 118 106 116 2 -2 -26 -72 -63 -156 -36 -83 -62 -155 -58 -159
4 -3 35 -29 69 -58 l61 -51 143 90 c78 49 144 89 145 87 2 -2 -44 -57 -101
-123 l-104 -120 57 -53 c62 -57 102 -87 107 -81 2 2 98 116 214 252 117 137
212 252 212 256 0 10 -177 161 -190 161 -6 0 -90 -45 -186 -101 -97 -55 -178
-98 -180 -96 -3 2 27 91 66 196 39 106 70 196 68 201 -4 13 -178 160 -188 160
-5 0 -106 -114 -225 -252z"/>
<path d="M6955 13867 c-106 -36 -188 -106 -231 -200 -24 -52 -29 -74 -28 -142
0 -66 5 -90 28 -137 34 -72 98 -138 167 -175 48 -25 64 -28 149 -28 85 0 101
3 148 28 76 40 137 100 169 166 24 49 28 68 28 146 0 77 -4 98 -27 147 -34 73
-104 143 -175 175 -67 31 -168 39 -228 20z m147 -216 c90 -57 112 -160 47
-227 -76 -79 -189 -44 -241 73 -29 65 -3 133 64 166 48 24 78 21 130 -12z"/>
<path d="M6253 13110 c-95 -19 -189 -95 -241 -194 -23 -44 -27 -63 -27 -141 0
-75 4 -98 24 -138 32 -66 111 -141 189 -179 57 -28 76 -33 142 -32 92 0 153
27 222 95 68 68 100 138 106 230 4 67 1 83 -23 137 -15 34 -35 68 -45 77 -16
15 -22 10 -83 -72 -57 -76 -64 -90 -56 -112 21 -55 -26 -135 -85 -146 -67 -13
-179 64 -192 132 -13 68 39 133 105 133 34 0 41 6 103 89 l67 89 -37 15 c-51
20 -119 27 -169 17z"/>
<path d="M13557 12919 c-195 -145 -266 -203 -259 -212 5 -7 62 -84 127 -172
64 -88 121 -164 125 -169 5 -4 37 13 72 40 35 26 64 49 66 50 2 1 -29 46 -69
98 -39 53 -70 98 -68 99 2 2 20 15 40 29 l36 27 62 -85 63 -84 41 30 c23 17
52 38 64 48 l22 17 -59 79 c-33 44 -60 83 -60 87 0 10 60 52 66 47 2 -3 35
-46 72 -96 l68 -90 62 46 c34 26 63 50 65 54 2 8 -255 357 -263 357 -3 0 -126
-90 -273 -200z"/>
<path d="M5183 10990 c-84 -51 -95 -156 -22 -226 27 -26 37 -29 94 -29 57 0
67 3 94 29 95 91 36 246 -94 246 -22 0 -54 -9 -72 -20z"/>
<path d="M14620 10992 c-64 -32 -91 -120 -59 -187 36 -74 148 -100 209 -49 44
38 63 80 57 126 -14 103 -115 157 -207 110z"/>
<path d="M5023 10120 c-87 -52 -83 -198 6 -245 70 -35 163 -7 195 59 47 99
-18 206 -125 206 -26 0 -57 -8 -76 -20z"/>
<path d="M14790 10133 c-45 -17 -90 -83 -90 -133 0 -101 118 -172 209 -126 93
49 95 203 2 251 -29 15 -91 19 -121 8z"/>
<path d="M5192 9300 c-34 -15 -47 -29 -63 -66 -36 -80 -4 -159 75 -189 40 -15
53 -16 88 -6 52 16 83 48 99 100 11 37 10 48 -7 89 -15 38 -28 52 -64 70 -54
27 -73 27 -128 2z"/>
<path d="M14635 9306 c-95 -43 -119 -160 -48 -228 61 -58 139 -60 197 -4 87
81 39 224 -79 241 -24 3 -52 0 -70 -9z"/>
<path d="M13470 6926 c-78 -90 -141 -168 -139 -172 2 -5 115 -107 252 -226
l249 -217 144 165 c79 91 144 169 144 173 0 5 -27 31 -59 59 l-59 52 -78 -90
-77 -89 -27 19 c-54 38 -53 40 20 124 l68 79 -56 48 c-30 27 -59 49 -63 49 -4
0 -36 -34 -70 -75 -35 -41 -66 -75 -69 -75 -4 0 -19 13 -34 29 l-27 29 77 88
77 89 -59 52 c-32 29 -62 53 -65 53 -3 0 -70 -74 -149 -164z"/>
<path d="M6233 6982 c-206 -73 -313 -291 -229 -465 31 -65 108 -148 165 -176
82 -42 198 -44 275 -4 l37 19 -73 82 c-70 79 -74 82 -116 82 -37 0 -50 6 -78
34 -59 59 -39 143 50 204 67 45 116 44 163 -3 32 -32 35 -39 31 -83 -3 -47 -2
-50 66 -125 38 -42 72 -77 77 -77 5 0 21 24 36 53 23 44 27 65 28 132 0 66 -5
90 -26 135 -75 160 -256 246 -406 192z"/>
<path d="M12997 6448 c-53 -40 -96 -78 -97 -84 0 -5 27 -97 61 -203 33 -106
59 -194 57 -196 -2 -2 -84 47 -182 110 l-178 114 -102 -76 c-55 -42 -102 -77
-103 -77 -4 -3 399 -531 408 -534 5 -2 44 24 88 58 l80 62 -96 124 c-52 69
-94 127 -92 128 2 2 63 -38 134 -90 72 -51 133 -94 138 -94 4 0 38 23 76 52
l69 51 -33 91 c-18 50 -45 122 -59 160 -15 38 -25 70 -23 72 1 2 47 -55 101
-127 l99 -129 36 27 c106 80 126 96 124 103 -3 12 -394 525 -402 528 -4 1 -51
-30 -104 -70z"/>
<path d="M6991 6304 c-30 -8 -68 -23 -85 -34 -54 -33 -114 -103 -143 -165 -39
-84 -40 -194 -2 -276 36 -77 87 -130 161 -169 85 -45 193 -53 280 -20 79 29
150 96 190 178 30 60 33 76 33 152 0 101 -21 154 -86 225 -53 58 -115 94 -188
111 -69 17 -92 17 -160 -2z m184 -218 c71 -55 67 -144 -10 -222 -41 -40 -49
-44 -94 -44 -42 0 -56 5 -86 31 -60 53 -63 125 -10 195 60 78 131 92 200 40z"/>
<path d="M7676 5581 l-146 -306 88 -42 c48 -23 92 -42 98 -42 6 -1 34 49 63
109 29 61 55 110 58 110 3 0 42 -17 88 -39 l82 -38 33 67 c18 37 30 72 27 77
-4 6 -40 25 -82 43 -42 19 -75 39 -75 47 0 15 28 73 35 73 3 0 57 -25 121 -55
65 -30 118 -54 120 -53 5 7 64 141 64 148 0 4 -35 23 -77 43 -43 19 -139 64
-214 100 l-136 65 -147 -307z"/>
<path d="M12063 5837 c-46 -23 -83 -45 -83 -49 0 -10 301 -598 306 -598 7 0
184 90 184 94 0 17 -304 596 -313 595 -7 0 -49 -19 -94 -42z"/>
<path d="M11428 5574 l-257 -84 26 -78 c14 -42 27 -79 29 -81 1 -1 39 9 84 24
45 15 83 25 84 24 2 -2 38 -110 81 -239 43 -129 79 -236 79 -237 6 -7 196 63
196 72 0 6 -34 112 -75 235 -41 124 -73 230 -71 235 2 6 38 22 80 35 42 13 76
29 76 36 0 6 -9 42 -20 78 -15 48 -25 66 -38 66 -9 -1 -133 -39 -274 -86z"/>
<path d="M8535 5567 c-12 -30 -175 -622 -175 -632 0 -18 191 -70 200 -55 4 7
20 59 35 117 16 58 33 107 39 109 6 2 48 -7 94 -20 l83 -24 8 21 c14 38 33
128 29 133 -3 2 -38 14 -79 25 -41 11 -79 22 -86 24 -9 3 -9 14 1 47 7 24 17
43 22 42 5 -1 62 -16 127 -34 64 -18 119 -31 120 -29 7 8 46 154 43 157 -2 2
-100 30 -217 63 -118 33 -220 62 -227 64 -7 3 -15 -1 -17 -8z"/>
<path d="M9290 5373 c0 -10 -16 -160 -34 -333 -19 -173 -33 -316 -32 -317 1
-1 101 -13 222 -26 l219 -23 6 31 c4 16 9 53 11 81 l5 52 -36 6 c-20 3 -74 8
-120 12 l-83 7 5 44 c2 24 7 47 11 50 3 3 49 1 103 -5 53 -6 98 -10 99 -9 1 1
6 36 11 79 l9 76 -65 6 c-144 14 -141 13 -141 57 l0 39 43 0 c23 0 75 -5 116
-10 53 -7 77 -7 82 1 6 11 22 150 17 154 -4 4 -397 45 -425 45 -15 0 -23 -6
-23 -17z"/>
<path d="M10253 5355 c-106 -6 -195 -14 -198 -16 -6 -7 32 -659 39 -666 5 -5
438 16 444 22 1 1 0 39 -4 84 l-7 81 -117 -7 -118 -6 -3 46 c-5 56 -3 57 96
57 106 0 105 -1 105 88 l0 75 -110 -6 -110 -6 0 43 0 43 121 8 122 7 -7 60
c-3 34 -6 72 -6 84 0 20 -5 24 -27 23 -16 -1 -115 -7 -220 -14z"/>
</g>
</svg>
